<mxfile host="app.diagrams.net" agent="Mozilla/5.0 (Windows NT 10.0; Win64; x64) AppleWebKit/537.36 (KHTML, like Gecko) Chrome/131.0.0.0 Safari/537.36" version="26.0.6">
  <diagram name="Page-1" id="74e2e168-ea6b-b213-b513-2b3c1d86103e">
    <mxGraphModel dx="1302" dy="711" grid="1" gridSize="10" guides="1" tooltips="1" connect="1" arrows="1" fold="1" page="1" pageScale="1" pageWidth="1100" pageHeight="850" background="none" math="0" shadow="0">
      <root>
        <mxCell id="0" />
        <mxCell id="1" parent="0" />
        <mxCell id="77e6c97f196da883-1" value="Login-Flow" style="swimlane;html=1;childLayout=stackLayout;startSize=20;rounded=0;shadow=0;labelBackgroundColor=none;strokeWidth=1;fontFamily=Verdana;fontSize=8;align=center;" parent="1" vertex="1">
          <mxGeometry x="60" y="60" width="560" height="750" as="geometry" />
        </mxCell>
        <mxCell id="77e6c97f196da883-3" value="Player" style="swimlane;html=1;startSize=20;" parent="77e6c97f196da883-1" vertex="1">
          <mxGeometry y="20" width="200" height="730" as="geometry" />
        </mxCell>
        <mxCell id="I38uoZIhNBEOroFiXY-z-10" value="Login" style="rounded=1;whiteSpace=wrap;html=1;shadow=0;labelBackgroundColor=none;strokeWidth=1;fontFamily=Verdana;fontSize=8;align=center;" parent="77e6c97f196da883-3" vertex="1">
          <mxGeometry x="45" y="65" width="70" height="45" as="geometry" />
        </mxCell>
        <mxCell id="I38uoZIhNBEOroFiXY-z-11" style="edgeStyle=orthogonalEdgeStyle;rounded=0;orthogonalLoop=1;jettySize=auto;html=1;entryX=0;entryY=0.5;entryDx=0;entryDy=0;exitX=1;exitY=0.5;exitDx=0;exitDy=0;" parent="77e6c97f196da883-3" source="I38uoZIhNBEOroFiXY-z-10" edge="1">
          <mxGeometry relative="1" as="geometry">
            <mxPoint x="140" y="87.21" as="targetPoint" />
            <mxPoint x="45" y="87.21" as="sourcePoint" />
          </mxGeometry>
        </mxCell>
        <mxCell id="I38uoZIhNBEOroFiXY-z-13" value="GetCards" style="rhombus;whiteSpace=wrap;html=1;rounded=0;shadow=0;labelBackgroundColor=none;strokeWidth=1;fontFamily=Verdana;fontSize=8;align=center;" parent="77e6c97f196da883-3" vertex="1">
          <mxGeometry x="140" y="65" width="60" height="46.25" as="geometry" />
        </mxCell>
        <mxCell id="I38uoZIhNBEOroFiXY-z-59" style="edgeStyle=orthogonalEdgeStyle;rounded=0;orthogonalLoop=1;jettySize=auto;html=1;entryX=1;entryY=0.5;entryDx=0;entryDy=0;" parent="77e6c97f196da883-3" source="I38uoZIhNBEOroFiXY-z-52" target="I38uoZIhNBEOroFiXY-z-58" edge="1">
          <mxGeometry relative="1" as="geometry" />
        </mxCell>
        <mxCell id="I38uoZIhNBEOroFiXY-z-52" value="Login Success" style="rounded=1;whiteSpace=wrap;html=1;shadow=0;labelBackgroundColor=none;strokeWidth=1;fontFamily=Verdana;fontSize=8;align=center;" parent="77e6c97f196da883-3" vertex="1">
          <mxGeometry x="45" y="460" width="70" height="45" as="geometry" />
        </mxCell>
        <mxCell id="I38uoZIhNBEOroFiXY-z-57" value="&lt;font style=&quot;font-size: 9px;&quot;&gt;Cards&lt;/font&gt;" style="ellipse;whiteSpace=wrap;html=1;aspect=fixed;" parent="77e6c97f196da883-3" vertex="1">
          <mxGeometry x="10" y="670" width="40" height="40" as="geometry" />
        </mxCell>
        <mxCell id="I38uoZIhNBEOroFiXY-z-60" style="edgeStyle=orthogonalEdgeStyle;rounded=0;orthogonalLoop=1;jettySize=auto;html=1;entryX=0.5;entryY=0;entryDx=0;entryDy=0;" parent="77e6c97f196da883-3" source="I38uoZIhNBEOroFiXY-z-58" target="I38uoZIhNBEOroFiXY-z-57" edge="1">
          <mxGeometry relative="1" as="geometry" />
        </mxCell>
        <mxCell id="I38uoZIhNBEOroFiXY-z-58" value="UpdateCards" style="rhombus;whiteSpace=wrap;html=1;rounded=0;shadow=0;labelBackgroundColor=none;strokeWidth=1;fontFamily=Verdana;fontSize=8;align=center;" parent="77e6c97f196da883-3" vertex="1">
          <mxGeometry y="598.75" width="60" height="46.25" as="geometry" />
        </mxCell>
        <mxCell id="77e6c97f196da883-4" value="Server" style="swimlane;html=1;startSize=20;" parent="77e6c97f196da883-1" vertex="1">
          <mxGeometry x="200" y="20" width="200" height="730" as="geometry" />
        </mxCell>
        <mxCell id="I38uoZIhNBEOroFiXY-z-16" style="edgeStyle=orthogonalEdgeStyle;rounded=0;orthogonalLoop=1;jettySize=auto;html=1;exitX=1;exitY=0.5;exitDx=0;exitDy=0;entryX=0;entryY=0.5;entryDx=0;entryDy=0;" parent="77e6c97f196da883-4" source="77e6c97f196da883-8" target="I38uoZIhNBEOroFiXY-z-17" edge="1">
          <mxGeometry relative="1" as="geometry">
            <mxPoint x="150" y="87.28571428571433" as="targetPoint" />
          </mxGeometry>
        </mxCell>
        <mxCell id="77e6c97f196da883-8" value="Get CardIDs From KV" style="rounded=1;whiteSpace=wrap;html=1;shadow=0;labelBackgroundColor=none;strokeWidth=1;fontFamily=Verdana;fontSize=8;align=center;" parent="77e6c97f196da883-4" vertex="1">
          <mxGeometry x="30" y="65" width="70" height="45" as="geometry" />
        </mxCell>
        <mxCell id="I38uoZIhNBEOroFiXY-z-18" style="edgeStyle=orthogonalEdgeStyle;rounded=0;orthogonalLoop=1;jettySize=auto;html=1;" parent="77e6c97f196da883-4" source="I38uoZIhNBEOroFiXY-z-17" edge="1">
          <mxGeometry relative="1" as="geometry">
            <mxPoint x="220" y="88.125" as="targetPoint" />
          </mxGeometry>
        </mxCell>
        <mxCell id="I38uoZIhNBEOroFiXY-z-25" style="edgeStyle=orthogonalEdgeStyle;rounded=0;orthogonalLoop=1;jettySize=auto;html=1;entryX=0.5;entryY=0;entryDx=0;entryDy=0;" parent="77e6c97f196da883-4" source="I38uoZIhNBEOroFiXY-z-17" target="I38uoZIhNBEOroFiXY-z-26" edge="1">
          <mxGeometry relative="1" as="geometry">
            <mxPoint x="160" y="140" as="targetPoint" />
            <Array as="points">
              <mxPoint x="160" y="140" />
            </Array>
          </mxGeometry>
        </mxCell>
        <mxCell id="I38uoZIhNBEOroFiXY-z-17" value="FetchCardIDs" style="rhombus;whiteSpace=wrap;html=1;rounded=0;shadow=0;labelBackgroundColor=none;strokeWidth=1;fontFamily=Verdana;fontSize=8;align=center;" parent="77e6c97f196da883-4" vertex="1">
          <mxGeometry x="130" y="65" width="60" height="46.25" as="geometry" />
        </mxCell>
        <mxCell id="I38uoZIhNBEOroFiXY-z-26" value="&lt;font style=&quot;font-size: 9px;&quot;&gt;PlayerID&lt;/font&gt;" style="ellipse;whiteSpace=wrap;html=1;aspect=fixed;" parent="77e6c97f196da883-4" vertex="1">
          <mxGeometry x="140" y="130" width="40" height="40" as="geometry" />
        </mxCell>
        <mxCell id="I38uoZIhNBEOroFiXY-z-32" style="edgeStyle=orthogonalEdgeStyle;rounded=0;orthogonalLoop=1;jettySize=auto;html=1;entryX=0;entryY=0.5;entryDx=0;entryDy=0;" parent="77e6c97f196da883-4" source="I38uoZIhNBEOroFiXY-z-28" target="I38uoZIhNBEOroFiXY-z-33" edge="1">
          <mxGeometry relative="1" as="geometry">
            <mxPoint x="60" y="310" as="targetPoint" />
            <Array as="points">
              <mxPoint x="60" y="353" />
            </Array>
          </mxGeometry>
        </mxCell>
        <mxCell id="I38uoZIhNBEOroFiXY-z-28" value="Get Every Card From CardIDs&amp;nbsp;" style="rounded=1;whiteSpace=wrap;html=1;shadow=0;labelBackgroundColor=none;strokeWidth=1;fontFamily=Verdana;fontSize=8;align=center;" parent="77e6c97f196da883-4" vertex="1">
          <mxGeometry x="30" y="190.63" width="70" height="45" as="geometry" />
        </mxCell>
        <mxCell id="I38uoZIhNBEOroFiXY-z-40" style="edgeStyle=orthogonalEdgeStyle;rounded=0;orthogonalLoop=1;jettySize=auto;html=1;" parent="77e6c97f196da883-4" source="I38uoZIhNBEOroFiXY-z-33" target="I38uoZIhNBEOroFiXY-z-34" edge="1">
          <mxGeometry relative="1" as="geometry" />
        </mxCell>
        <mxCell id="I38uoZIhNBEOroFiXY-z-41" style="edgeStyle=orthogonalEdgeStyle;rounded=0;orthogonalLoop=1;jettySize=auto;html=1;" parent="77e6c97f196da883-4" source="I38uoZIhNBEOroFiXY-z-33" edge="1">
          <mxGeometry relative="1" as="geometry">
            <mxPoint x="220" y="353.125" as="targetPoint" />
          </mxGeometry>
        </mxCell>
        <mxCell id="I38uoZIhNBEOroFiXY-z-33" value="GetCard" style="rhombus;whiteSpace=wrap;html=1;rounded=0;shadow=0;labelBackgroundColor=none;strokeWidth=1;fontFamily=Verdana;fontSize=8;align=center;" parent="77e6c97f196da883-4" vertex="1">
          <mxGeometry x="90" y="330" width="60" height="46.25" as="geometry" />
        </mxCell>
        <mxCell id="I38uoZIhNBEOroFiXY-z-34" value="&lt;font style=&quot;font-size: 9px;&quot;&gt;CardIDs&lt;/font&gt;" style="ellipse;whiteSpace=wrap;html=1;aspect=fixed;" parent="77e6c97f196da883-4" vertex="1">
          <mxGeometry x="100" y="400" width="40" height="40" as="geometry" />
        </mxCell>
        <mxCell id="I38uoZIhNBEOroFiXY-z-49" style="edgeStyle=orthogonalEdgeStyle;rounded=0;orthogonalLoop=1;jettySize=auto;html=1;entryX=1;entryY=0.5;entryDx=0;entryDy=0;" parent="77e6c97f196da883-4" source="I38uoZIhNBEOroFiXY-z-48" target="I38uoZIhNBEOroFiXY-z-50" edge="1">
          <mxGeometry relative="1" as="geometry">
            <mxPoint x="50" y="482.5" as="targetPoint" />
          </mxGeometry>
        </mxCell>
        <mxCell id="I38uoZIhNBEOroFiXY-z-48" value="Send Cards As An Array Back To Client" style="rounded=1;whiteSpace=wrap;html=1;shadow=0;labelBackgroundColor=none;strokeWidth=1;fontFamily=Verdana;fontSize=8;align=center;" parent="77e6c97f196da883-4" vertex="1">
          <mxGeometry x="90" y="460" width="70" height="45" as="geometry" />
        </mxCell>
        <mxCell id="I38uoZIhNBEOroFiXY-z-53" style="edgeStyle=orthogonalEdgeStyle;rounded=0;orthogonalLoop=1;jettySize=auto;html=1;" parent="77e6c97f196da883-4" source="I38uoZIhNBEOroFiXY-z-50" edge="1">
          <mxGeometry relative="1" as="geometry">
            <mxPoint x="30" y="530" as="targetPoint" />
          </mxGeometry>
        </mxCell>
        <mxCell id="I38uoZIhNBEOroFiXY-z-50" value="GetCards&lt;div&gt;Complete&lt;/div&gt;" style="rhombus;whiteSpace=wrap;html=1;rounded=0;shadow=0;labelBackgroundColor=none;strokeWidth=1;fontFamily=Verdana;fontSize=8;align=center;" parent="77e6c97f196da883-4" vertex="1">
          <mxGeometry y="458.75" width="60" height="46.25" as="geometry" />
        </mxCell>
        <mxCell id="I38uoZIhNBEOroFiXY-z-55" value="&lt;font style=&quot;font-size: 9px;&quot;&gt;Cards&lt;/font&gt;" style="ellipse;whiteSpace=wrap;html=1;aspect=fixed;" parent="77e6c97f196da883-4" vertex="1">
          <mxGeometry x="10" y="530" width="40" height="40" as="geometry" />
        </mxCell>
        <mxCell id="77e6c97f196da883-5" value="KV" style="swimlane;html=1;startSize=20;" parent="77e6c97f196da883-1" vertex="1">
          <mxGeometry x="400" y="20" width="160" height="730" as="geometry" />
        </mxCell>
        <mxCell id="I38uoZIhNBEOroFiXY-z-23" style="edgeStyle=orthogonalEdgeStyle;rounded=0;orthogonalLoop=1;jettySize=auto;html=1;entryX=1;entryY=0.5;entryDx=0;entryDy=0;" parent="77e6c97f196da883-5" source="I38uoZIhNBEOroFiXY-z-19" target="I38uoZIhNBEOroFiXY-z-22" edge="1">
          <mxGeometry relative="1" as="geometry" />
        </mxCell>
        <mxCell id="I38uoZIhNBEOroFiXY-z-19" value="Return Player--CardIDs" style="rounded=1;whiteSpace=wrap;html=1;shadow=0;labelBackgroundColor=none;strokeWidth=1;fontFamily=Verdana;fontSize=8;align=center;" parent="77e6c97f196da883-5" vertex="1">
          <mxGeometry x="30" y="65" width="110" height="45" as="geometry" />
        </mxCell>
        <mxCell id="I38uoZIhNBEOroFiXY-z-31" style="edgeStyle=orthogonalEdgeStyle;rounded=0;orthogonalLoop=1;jettySize=auto;html=1;entryX=0.5;entryY=0;entryDx=0;entryDy=0;" parent="77e6c97f196da883-5" source="I38uoZIhNBEOroFiXY-z-22" target="I38uoZIhNBEOroFiXY-z-30" edge="1">
          <mxGeometry relative="1" as="geometry" />
        </mxCell>
        <mxCell id="I38uoZIhNBEOroFiXY-z-22" value="Complete" style="rhombus;whiteSpace=wrap;html=1;rounded=0;shadow=0;labelBackgroundColor=none;strokeWidth=1;fontFamily=Verdana;fontSize=8;align=center;" parent="77e6c97f196da883-5" vertex="1">
          <mxGeometry y="190" width="60" height="46.25" as="geometry" />
        </mxCell>
        <mxCell id="I38uoZIhNBEOroFiXY-z-30" value="&lt;font style=&quot;font-size: 9px;&quot;&gt;CardIDs&lt;/font&gt;" style="ellipse;whiteSpace=wrap;html=1;aspect=fixed;" parent="77e6c97f196da883-5" vertex="1">
          <mxGeometry x="10" y="260" width="40" height="40" as="geometry" />
        </mxCell>
        <mxCell id="I38uoZIhNBEOroFiXY-z-43" style="edgeStyle=orthogonalEdgeStyle;rounded=0;orthogonalLoop=1;jettySize=auto;html=1;entryX=1;entryY=0.5;entryDx=0;entryDy=0;" parent="77e6c97f196da883-5" source="I38uoZIhNBEOroFiXY-z-42" target="I38uoZIhNBEOroFiXY-z-44" edge="1">
          <mxGeometry relative="1" as="geometry">
            <mxPoint x="75" y="490" as="targetPoint" />
            <Array as="points">
              <mxPoint x="75" y="483" />
            </Array>
          </mxGeometry>
        </mxCell>
        <mxCell id="I38uoZIhNBEOroFiXY-z-42" value="Return CardID--Card" style="rounded=1;whiteSpace=wrap;html=1;shadow=0;labelBackgroundColor=none;strokeWidth=1;fontFamily=Verdana;fontSize=8;align=center;" parent="77e6c97f196da883-5" vertex="1">
          <mxGeometry x="20" y="330" width="110" height="45" as="geometry" />
        </mxCell>
        <mxCell id="I38uoZIhNBEOroFiXY-z-45" style="edgeStyle=orthogonalEdgeStyle;rounded=0;orthogonalLoop=1;jettySize=auto;html=1;exitX=0.5;exitY=1;exitDx=0;exitDy=0;" parent="77e6c97f196da883-5" source="I38uoZIhNBEOroFiXY-z-44" edge="1">
          <mxGeometry relative="1" as="geometry">
            <mxPoint x="30.14285714285711" y="520" as="targetPoint" />
          </mxGeometry>
        </mxCell>
        <mxCell id="I38uoZIhNBEOroFiXY-z-44" value="Complete" style="rhombus;whiteSpace=wrap;html=1;rounded=0;shadow=0;labelBackgroundColor=none;strokeWidth=1;fontFamily=Verdana;fontSize=8;align=center;" parent="77e6c97f196da883-5" vertex="1">
          <mxGeometry y="460" width="60" height="46.25" as="geometry" />
        </mxCell>
        <mxCell id="I38uoZIhNBEOroFiXY-z-46" value="&lt;font style=&quot;font-size: 9px;&quot;&gt;Card&lt;/font&gt;" style="ellipse;whiteSpace=wrap;html=1;aspect=fixed;" parent="77e6c97f196da883-5" vertex="1">
          <mxGeometry x="10" y="520" width="40" height="40" as="geometry" />
        </mxCell>
        <mxCell id="I38uoZIhNBEOroFiXY-z-14" style="edgeStyle=orthogonalEdgeStyle;rounded=0;orthogonalLoop=1;jettySize=auto;html=1;entryX=0;entryY=0.5;entryDx=0;entryDy=0;" parent="77e6c97f196da883-1" source="I38uoZIhNBEOroFiXY-z-13" target="77e6c97f196da883-8" edge="1">
          <mxGeometry relative="1" as="geometry" />
        </mxCell>
        <mxCell id="I38uoZIhNBEOroFiXY-z-29" style="edgeStyle=orthogonalEdgeStyle;rounded=0;orthogonalLoop=1;jettySize=auto;html=1;entryX=1;entryY=0.5;entryDx=0;entryDy=0;" parent="77e6c97f196da883-1" source="I38uoZIhNBEOroFiXY-z-22" target="I38uoZIhNBEOroFiXY-z-28" edge="1">
          <mxGeometry relative="1" as="geometry" />
        </mxCell>
        <mxCell id="I38uoZIhNBEOroFiXY-z-47" style="edgeStyle=orthogonalEdgeStyle;rounded=0;orthogonalLoop=1;jettySize=auto;html=1;entryX=1;entryY=0.5;entryDx=0;entryDy=0;" parent="77e6c97f196da883-1" source="I38uoZIhNBEOroFiXY-z-44" target="I38uoZIhNBEOroFiXY-z-48" edge="1">
          <mxGeometry relative="1" as="geometry">
            <mxPoint x="520" y="503" as="targetPoint" />
          </mxGeometry>
        </mxCell>
        <mxCell id="I38uoZIhNBEOroFiXY-z-51" style="edgeStyle=orthogonalEdgeStyle;rounded=0;orthogonalLoop=1;jettySize=auto;html=1;entryX=1;entryY=0.5;entryDx=0;entryDy=0;" parent="77e6c97f196da883-1" source="I38uoZIhNBEOroFiXY-z-50" target="I38uoZIhNBEOroFiXY-z-52" edge="1">
          <mxGeometry relative="1" as="geometry">
            <mxPoint x="280" y="501.875" as="targetPoint" />
          </mxGeometry>
        </mxCell>
        <mxCell id="I38uoZIhNBEOroFiXY-z-64" style="edgeStyle=orthogonalEdgeStyle;rounded=0;orthogonalLoop=1;jettySize=auto;html=1;entryX=1;entryY=0.5;entryDx=0;entryDy=0;" parent="77e6c97f196da883-1" source="I38uoZIhNBEOroFiXY-z-58" edge="1">
          <mxGeometry relative="1" as="geometry">
            <mxPoint x="110" y="642.5" as="targetPoint" />
          </mxGeometry>
        </mxCell>
        <mxCell id="I38uoZIhNBEOroFiXY-z-147" value="Level-Flow" style="swimlane;html=1;childLayout=stackLayout;startSize=20;rounded=0;shadow=0;labelBackgroundColor=none;strokeWidth=1;fontFamily=Verdana;fontSize=8;align=center;" parent="1" vertex="1">
          <mxGeometry x="920" y="60" width="770" height="1180" as="geometry" />
        </mxCell>
        <mxCell id="I38uoZIhNBEOroFiXY-z-150" value="Player" style="swimlane;html=1;startSize=20;" parent="I38uoZIhNBEOroFiXY-z-147" vertex="1">
          <mxGeometry y="20" width="290" height="1160" as="geometry" />
        </mxCell>
        <mxCell id="V88XMunbEEajlaaTa_F--8" style="edgeStyle=orthogonalEdgeStyle;rounded=0;orthogonalLoop=1;jettySize=auto;html=1;entryX=0;entryY=0.5;entryDx=0;entryDy=0;" edge="1" parent="I38uoZIhNBEOroFiXY-z-150" source="I38uoZIhNBEOroFiXY-z-151" target="I38uoZIhNBEOroFiXY-z-154">
          <mxGeometry relative="1" as="geometry" />
        </mxCell>
        <mxCell id="I38uoZIhNBEOroFiXY-z-151" value="Press&amp;nbsp;&lt;div&gt;Enter Level Button&lt;/div&gt;" style="rounded=1;whiteSpace=wrap;html=1;shadow=0;labelBackgroundColor=none;strokeWidth=1;fontFamily=Verdana;fontSize=8;align=center;" parent="I38uoZIhNBEOroFiXY-z-150" vertex="1">
          <mxGeometry x="35" y="65.63" width="70" height="45" as="geometry" />
        </mxCell>
        <mxCell id="I38uoZIhNBEOroFiXY-z-153" style="edgeStyle=orthogonalEdgeStyle;rounded=0;orthogonalLoop=1;jettySize=auto;html=1;entryX=0.5;entryY=0;entryDx=0;entryDy=0;" parent="I38uoZIhNBEOroFiXY-z-150" source="I38uoZIhNBEOroFiXY-z-154" target="I38uoZIhNBEOroFiXY-z-160" edge="1">
          <mxGeometry relative="1" as="geometry" />
        </mxCell>
        <mxCell id="I38uoZIhNBEOroFiXY-z-154" value="Enter Level" style="rhombus;whiteSpace=wrap;html=1;rounded=0;shadow=0;labelBackgroundColor=none;strokeWidth=1;fontFamily=Verdana;fontSize=8;align=center;" parent="I38uoZIhNBEOroFiXY-z-150" vertex="1">
          <mxGeometry x="230" y="65" width="60" height="46.25" as="geometry" />
        </mxCell>
        <mxCell id="I38uoZIhNBEOroFiXY-z-160" value="&lt;font style=&quot;font-size: 9px;&quot;&gt;PlayerID&lt;/font&gt;" style="ellipse;whiteSpace=wrap;html=1;aspect=fixed;" parent="I38uoZIhNBEOroFiXY-z-150" vertex="1">
          <mxGeometry x="240" y="130" width="40" height="40" as="geometry" />
        </mxCell>
        <mxCell id="I38uoZIhNBEOroFiXY-z-225" style="edgeStyle=orthogonalEdgeStyle;rounded=0;orthogonalLoop=1;jettySize=auto;html=1;entryX=0.5;entryY=0;entryDx=0;entryDy=0;" parent="I38uoZIhNBEOroFiXY-z-150" source="I38uoZIhNBEOroFiXY-z-202" target="I38uoZIhNBEOroFiXY-z-236" edge="1">
          <mxGeometry relative="1" as="geometry">
            <mxPoint x="55.67000000000007" y="1021.98" as="targetPoint" />
          </mxGeometry>
        </mxCell>
        <mxCell id="I38uoZIhNBEOroFiXY-z-202" value="ShowSettlement" style="rounded=1;whiteSpace=wrap;html=1;shadow=0;labelBackgroundColor=none;strokeWidth=1;fontFamily=Verdana;fontSize=8;align=center;" parent="I38uoZIhNBEOroFiXY-z-150" vertex="1">
          <mxGeometry x="130" y="910" width="70" height="45" as="geometry" />
        </mxCell>
        <mxCell id="I38uoZIhNBEOroFiXY-z-234" value="&lt;font style=&quot;font-size: 9px;&quot;&gt;Cards&lt;/font&gt;" style="ellipse;whiteSpace=wrap;html=1;aspect=fixed;" parent="I38uoZIhNBEOroFiXY-z-150" vertex="1">
          <mxGeometry x="145" y="1061.25" width="40" height="40" as="geometry" />
        </mxCell>
        <mxCell id="I38uoZIhNBEOroFiXY-z-235" style="edgeStyle=orthogonalEdgeStyle;rounded=0;orthogonalLoop=1;jettySize=auto;html=1;entryX=0.5;entryY=0;entryDx=0;entryDy=0;" parent="I38uoZIhNBEOroFiXY-z-150" source="I38uoZIhNBEOroFiXY-z-236" target="I38uoZIhNBEOroFiXY-z-234" edge="1">
          <mxGeometry relative="1" as="geometry" />
        </mxCell>
        <mxCell id="I38uoZIhNBEOroFiXY-z-236" value="UpdateCards" style="rhombus;whiteSpace=wrap;html=1;rounded=0;shadow=0;labelBackgroundColor=none;strokeWidth=1;fontFamily=Verdana;fontSize=8;align=center;" parent="I38uoZIhNBEOroFiXY-z-150" vertex="1">
          <mxGeometry x="135" y="990" width="60" height="46.25" as="geometry" />
        </mxCell>
        <mxCell id="I38uoZIhNBEOroFiXY-z-173" value="End Level" style="rounded=1;whiteSpace=wrap;html=1;shadow=0;labelBackgroundColor=none;strokeWidth=1;fontFamily=Verdana;fontSize=8;align=center;" parent="I38uoZIhNBEOroFiXY-z-150" vertex="1">
          <mxGeometry x="35" y="490" width="70" height="45" as="geometry" />
        </mxCell>
        <mxCell id="I38uoZIhNBEOroFiXY-z-174" style="edgeStyle=orthogonalEdgeStyle;rounded=0;orthogonalLoop=1;jettySize=auto;html=1;entryX=0.5;entryY=0;entryDx=0;entryDy=0;" parent="I38uoZIhNBEOroFiXY-z-150" source="I38uoZIhNBEOroFiXY-z-175" target="I38uoZIhNBEOroFiXY-z-176" edge="1">
          <mxGeometry relative="1" as="geometry" />
        </mxCell>
        <mxCell id="I38uoZIhNBEOroFiXY-z-175" value="End Level" style="rhombus;whiteSpace=wrap;html=1;rounded=0;shadow=0;labelBackgroundColor=none;strokeWidth=1;fontFamily=Verdana;fontSize=8;align=center;" parent="I38uoZIhNBEOroFiXY-z-150" vertex="1">
          <mxGeometry x="230" y="490" width="60" height="46.25" as="geometry" />
        </mxCell>
        <mxCell id="I38uoZIhNBEOroFiXY-z-176" value="&lt;font style=&quot;font-size: 9px;&quot;&gt;PlayerID&lt;/font&gt;" style="ellipse;whiteSpace=wrap;html=1;aspect=fixed;" parent="I38uoZIhNBEOroFiXY-z-150" vertex="1">
          <mxGeometry x="240" y="560" width="40" height="40" as="geometry" />
        </mxCell>
        <mxCell id="I38uoZIhNBEOroFiXY-z-177" style="edgeStyle=orthogonalEdgeStyle;rounded=0;orthogonalLoop=1;jettySize=auto;html=1;entryX=-0.06;entryY=0.478;entryDx=0;entryDy=0;entryPerimeter=0;" parent="I38uoZIhNBEOroFiXY-z-150" source="I38uoZIhNBEOroFiXY-z-173" target="I38uoZIhNBEOroFiXY-z-175" edge="1">
          <mxGeometry relative="1" as="geometry" />
        </mxCell>
        <mxCell id="V88XMunbEEajlaaTa_F--9" style="edgeStyle=orthogonalEdgeStyle;rounded=0;orthogonalLoop=1;jettySize=auto;html=1;entryX=0.5;entryY=0;entryDx=0;entryDy=0;" edge="1" parent="I38uoZIhNBEOroFiXY-z-150" source="D0HEchOp2uFlRMcZAwUu-7" target="D0HEchOp2uFlRMcZAwUu-10">
          <mxGeometry relative="1" as="geometry">
            <Array as="points">
              <mxPoint x="80" y="340" />
              <mxPoint x="165" y="340" />
            </Array>
          </mxGeometry>
        </mxCell>
        <mxCell id="V88XMunbEEajlaaTa_F--12" style="edgeStyle=orthogonalEdgeStyle;rounded=0;orthogonalLoop=1;jettySize=auto;html=1;entryX=0.25;entryY=0;entryDx=0;entryDy=0;" edge="1" parent="I38uoZIhNBEOroFiXY-z-150" source="D0HEchOp2uFlRMcZAwUu-7" target="I38uoZIhNBEOroFiXY-z-173">
          <mxGeometry relative="1" as="geometry">
            <Array as="points">
              <mxPoint x="53" y="398" />
            </Array>
          </mxGeometry>
        </mxCell>
        <mxCell id="D0HEchOp2uFlRMcZAwUu-7" value="Enter Level" style="rounded=1;whiteSpace=wrap;html=1;shadow=0;labelBackgroundColor=none;strokeWidth=1;fontFamily=Verdana;fontSize=8;align=center;" parent="I38uoZIhNBEOroFiXY-z-150" vertex="1">
          <mxGeometry x="35" y="260" width="70" height="45" as="geometry" />
        </mxCell>
        <mxCell id="D0HEchOp2uFlRMcZAwUu-15" style="edgeStyle=orthogonalEdgeStyle;rounded=0;orthogonalLoop=1;jettySize=auto;html=1;entryX=0;entryY=0.5;entryDx=0;entryDy=0;" parent="I38uoZIhNBEOroFiXY-z-150" source="D0HEchOp2uFlRMcZAwUu-10" target="D0HEchOp2uFlRMcZAwUu-14" edge="1">
          <mxGeometry relative="1" as="geometry" />
        </mxCell>
        <mxCell id="D0HEchOp2uFlRMcZAwUu-10" value="Leave Halfway" style="rounded=1;whiteSpace=wrap;html=1;shadow=0;labelBackgroundColor=none;strokeWidth=1;fontFamily=Verdana;fontSize=8;align=center;" parent="I38uoZIhNBEOroFiXY-z-150" vertex="1">
          <mxGeometry x="130" y="371.25" width="70" height="45" as="geometry" />
        </mxCell>
        <mxCell id="D0HEchOp2uFlRMcZAwUu-14" value="PlayerRemoved" style="rhombus;whiteSpace=wrap;html=1;rounded=0;shadow=0;labelBackgroundColor=none;strokeWidth=1;fontFamily=Verdana;fontSize=8;align=center;" parent="I38uoZIhNBEOroFiXY-z-150" vertex="1">
          <mxGeometry x="230" y="370" width="60" height="46.25" as="geometry" />
        </mxCell>
        <mxCell id="V88XMunbEEajlaaTa_F--11" style="edgeStyle=orthogonalEdgeStyle;rounded=0;orthogonalLoop=1;jettySize=auto;html=1;entryX=0.643;entryY=-0.03;entryDx=0;entryDy=0;entryPerimeter=0;" edge="1" parent="I38uoZIhNBEOroFiXY-z-150" source="D0HEchOp2uFlRMcZAwUu-10" target="I38uoZIhNBEOroFiXY-z-173">
          <mxGeometry relative="1" as="geometry">
            <Array as="points">
              <mxPoint x="165" y="440" />
              <mxPoint x="80" y="440" />
            </Array>
          </mxGeometry>
        </mxCell>
        <mxCell id="I38uoZIhNBEOroFiXY-z-161" value="Server" style="swimlane;html=1;startSize=20;" parent="I38uoZIhNBEOroFiXY-z-147" vertex="1">
          <mxGeometry x="290" y="20" width="240" height="1160" as="geometry" />
        </mxCell>
        <mxCell id="I38uoZIhNBEOroFiXY-z-197" style="edgeStyle=orthogonalEdgeStyle;rounded=0;orthogonalLoop=1;jettySize=auto;html=1;entryX=0.5;entryY=0;entryDx=0;entryDy=0;" parent="I38uoZIhNBEOroFiXY-z-161" source="I38uoZIhNBEOroFiXY-z-178" target="I38uoZIhNBEOroFiXY-z-182" edge="1">
          <mxGeometry relative="1" as="geometry">
            <mxPoint x="105" y="568.75" as="targetPoint" />
          </mxGeometry>
        </mxCell>
        <mxCell id="I38uoZIhNBEOroFiXY-z-178" value="Verify" style="rounded=1;whiteSpace=wrap;html=1;shadow=0;labelBackgroundColor=none;strokeWidth=1;fontFamily=Verdana;fontSize=8;align=center;" parent="I38uoZIhNBEOroFiXY-z-161" vertex="1">
          <mxGeometry x="35" y="490" width="100" height="45" as="geometry" />
        </mxCell>
        <mxCell id="I38uoZIhNBEOroFiXY-z-221" style="edgeStyle=orthogonalEdgeStyle;rounded=0;orthogonalLoop=1;jettySize=auto;html=1;entryX=0.5;entryY=0;entryDx=0;entryDy=0;" parent="I38uoZIhNBEOroFiXY-z-161" source="I38uoZIhNBEOroFiXY-z-182" target="I38uoZIhNBEOroFiXY-z-220" edge="1">
          <mxGeometry relative="1" as="geometry" />
        </mxCell>
        <mxCell id="I38uoZIhNBEOroFiXY-z-182" value="Settle" style="rounded=1;whiteSpace=wrap;html=1;shadow=0;labelBackgroundColor=none;strokeWidth=1;fontFamily=Verdana;fontSize=8;align=center;" parent="I38uoZIhNBEOroFiXY-z-161" vertex="1">
          <mxGeometry x="50" y="578.75" width="70" height="45" as="geometry" />
        </mxCell>
        <mxCell id="I38uoZIhNBEOroFiXY-z-205" value="StoreNewCard" style="rhombus;whiteSpace=wrap;html=1;rounded=0;shadow=0;labelBackgroundColor=none;strokeWidth=1;fontFamily=Verdana;fontSize=8;align=center;" parent="I38uoZIhNBEOroFiXY-z-161" vertex="1">
          <mxGeometry x="180" y="799.38" width="60" height="46.25" as="geometry" />
        </mxCell>
        <mxCell id="I38uoZIhNBEOroFiXY-z-208" value="GetPoolConfig" style="rhombus;whiteSpace=wrap;html=1;rounded=0;shadow=0;labelBackgroundColor=none;strokeWidth=1;fontFamily=Verdana;fontSize=8;align=center;" parent="I38uoZIhNBEOroFiXY-z-161" vertex="1">
          <mxGeometry x="180" y="688.12" width="60" height="46.25" as="geometry" />
        </mxCell>
        <mxCell id="I38uoZIhNBEOroFiXY-z-210" value="&lt;font style=&quot;font-size: 9px;&quot;&gt;PoolID&lt;/font&gt;" style="ellipse;whiteSpace=wrap;html=1;aspect=fixed;" parent="I38uoZIhNBEOroFiXY-z-161" vertex="1">
          <mxGeometry x="190" y="750" width="40" height="40" as="geometry" />
        </mxCell>
        <mxCell id="I38uoZIhNBEOroFiXY-z-211" style="edgeStyle=orthogonalEdgeStyle;rounded=0;orthogonalLoop=1;jettySize=auto;html=1;entryX=0.5;entryY=0;entryDx=0;entryDy=0;" parent="I38uoZIhNBEOroFiXY-z-161" source="I38uoZIhNBEOroFiXY-z-208" target="I38uoZIhNBEOroFiXY-z-210" edge="1">
          <mxGeometry relative="1" as="geometry" />
        </mxCell>
        <mxCell id="I38uoZIhNBEOroFiXY-z-222" style="edgeStyle=orthogonalEdgeStyle;rounded=0;orthogonalLoop=1;jettySize=auto;html=1;entryX=0;entryY=0.5;entryDx=0;entryDy=0;" parent="I38uoZIhNBEOroFiXY-z-161" source="I38uoZIhNBEOroFiXY-z-220" target="I38uoZIhNBEOroFiXY-z-205" edge="1">
          <mxGeometry relative="1" as="geometry">
            <Array as="points">
              <mxPoint x="90" y="821.75" />
            </Array>
          </mxGeometry>
        </mxCell>
        <mxCell id="D0HEchOp2uFlRMcZAwUu-29" style="edgeStyle=orthogonalEdgeStyle;rounded=0;orthogonalLoop=1;jettySize=auto;html=1;entryX=0;entryY=0.5;entryDx=0;entryDy=0;" parent="I38uoZIhNBEOroFiXY-z-161" source="I38uoZIhNBEOroFiXY-z-220" target="I38uoZIhNBEOroFiXY-z-208" edge="1">
          <mxGeometry relative="1" as="geometry" />
        </mxCell>
        <mxCell id="I38uoZIhNBEOroFiXY-z-220" value="Get Card Drop And Generate CardID" style="rounded=1;whiteSpace=wrap;html=1;shadow=0;labelBackgroundColor=none;strokeWidth=1;fontFamily=Verdana;fontSize=8;align=center;" parent="I38uoZIhNBEOroFiXY-z-161" vertex="1">
          <mxGeometry x="50" y="688.75" width="70" height="45" as="geometry" />
        </mxCell>
        <mxCell id="D0HEchOp2uFlRMcZAwUu-20" style="edgeStyle=orthogonalEdgeStyle;rounded=0;orthogonalLoop=1;jettySize=auto;html=1;entryX=0.5;entryY=0;entryDx=0;entryDy=0;" parent="I38uoZIhNBEOroFiXY-z-161" source="D0HEchOp2uFlRMcZAwUu-2" target="D0HEchOp2uFlRMcZAwUu-18" edge="1">
          <mxGeometry relative="1" as="geometry" />
        </mxCell>
        <mxCell id="D0HEchOp2uFlRMcZAwUu-2" value="Verify" style="rounded=1;whiteSpace=wrap;html=1;shadow=0;labelBackgroundColor=none;strokeWidth=1;fontFamily=Verdana;fontSize=8;align=center;" parent="I38uoZIhNBEOroFiXY-z-161" vertex="1">
          <mxGeometry x="90" y="65" width="70" height="45" as="geometry" />
        </mxCell>
        <mxCell id="D0HEchOp2uFlRMcZAwUu-4" value="Enter Level Complete" style="rhombus;whiteSpace=wrap;html=1;rounded=0;shadow=0;labelBackgroundColor=none;strokeWidth=1;fontFamily=Verdana;fontSize=8;align=center;" parent="I38uoZIhNBEOroFiXY-z-161" vertex="1">
          <mxGeometry y="260" width="60" height="46.25" as="geometry" />
        </mxCell>
        <mxCell id="D0HEchOp2uFlRMcZAwUu-16" value="&lt;div&gt;&lt;span style=&quot;background-color: transparent; color: light-dark(rgb(0, 0, 0), rgb(255, 255, 255));&quot;&gt;Clear Player DataCache,&lt;/span&gt;&lt;/div&gt;&lt;div&gt;Save Player Data,&lt;/div&gt;&lt;div&gt;Destroy Level Instance&lt;/div&gt;" style="rounded=1;whiteSpace=wrap;html=1;shadow=0;labelBackgroundColor=none;strokeWidth=1;fontFamily=Verdana;fontSize=8;align=center;" parent="I38uoZIhNBEOroFiXY-z-161" vertex="1">
          <mxGeometry x="35" y="362.5" width="125" height="61.25" as="geometry" />
        </mxCell>
        <mxCell id="D0HEchOp2uFlRMcZAwUu-25" style="edgeStyle=orthogonalEdgeStyle;rounded=0;orthogonalLoop=1;jettySize=auto;html=1;entryX=0;entryY=0.5;entryDx=0;entryDy=0;" parent="I38uoZIhNBEOroFiXY-z-161" source="D0HEchOp2uFlRMcZAwUu-18" target="D0HEchOp2uFlRMcZAwUu-24" edge="1">
          <mxGeometry relative="1" as="geometry" />
        </mxCell>
        <mxCell id="D0HEchOp2uFlRMcZAwUu-18" value="&amp;nbsp;Consumption" style="rounded=1;whiteSpace=wrap;html=1;shadow=0;labelBackgroundColor=none;strokeWidth=1;fontFamily=Verdana;fontSize=8;align=center;" parent="I38uoZIhNBEOroFiXY-z-161" vertex="1">
          <mxGeometry x="90" y="161.25" width="70" height="45" as="geometry" />
        </mxCell>
        <mxCell id="D0HEchOp2uFlRMcZAwUu-24" value="&lt;span style=&quot;background-color: transparent; color: light-dark(rgb(0, 0, 0), rgb(255, 255, 255));&quot;&gt;Consumption&lt;/span&gt;&lt;div&gt;&lt;span style=&quot;background-color: transparent; color: light-dark(rgb(0, 0, 0), rgb(255, 255, 255));&quot;&gt;Suceess&lt;/span&gt;&lt;/div&gt;" style="rhombus;whiteSpace=wrap;html=1;rounded=0;shadow=0;labelBackgroundColor=none;strokeWidth=1;fontFamily=Verdana;fontSize=8;align=center;" parent="I38uoZIhNBEOroFiXY-z-161" vertex="1">
          <mxGeometry x="180" y="160.62" width="60" height="46.25" as="geometry" />
        </mxCell>
        <mxCell id="V88XMunbEEajlaaTa_F--6" style="edgeStyle=orthogonalEdgeStyle;rounded=0;orthogonalLoop=1;jettySize=auto;html=1;entryX=1;entryY=0.5;entryDx=0;entryDy=0;" edge="1" parent="I38uoZIhNBEOroFiXY-z-161" source="V88XMunbEEajlaaTa_F--4" target="D0HEchOp2uFlRMcZAwUu-4">
          <mxGeometry relative="1" as="geometry" />
        </mxCell>
        <mxCell id="V88XMunbEEajlaaTa_F--4" value="Mark Player IsInLevel true" style="rounded=1;whiteSpace=wrap;html=1;shadow=0;labelBackgroundColor=none;strokeWidth=1;fontFamily=Verdana;fontSize=8;align=center;" vertex="1" parent="I38uoZIhNBEOroFiXY-z-161">
          <mxGeometry x="90" y="261.25" width="70" height="45" as="geometry" />
        </mxCell>
        <mxCell id="V88XMunbEEajlaaTa_F--15" value="Store player card" style="rounded=1;whiteSpace=wrap;html=1;shadow=0;labelBackgroundColor=none;strokeWidth=1;fontFamily=Verdana;fontSize=8;align=center;" vertex="1" parent="I38uoZIhNBEOroFiXY-z-161">
          <mxGeometry x="100" y="908.13" width="70" height="50" as="geometry" />
        </mxCell>
        <mxCell id="I38uoZIhNBEOroFiXY-z-199" value="SettleComplete" style="rhombus;whiteSpace=wrap;html=1;rounded=0;shadow=0;labelBackgroundColor=none;strokeWidth=1;fontFamily=Verdana;fontSize=8;align=center;" parent="I38uoZIhNBEOroFiXY-z-161" vertex="1">
          <mxGeometry y="907.5" width="70" height="50" as="geometry" />
        </mxCell>
        <mxCell id="V88XMunbEEajlaaTa_F--17" style="edgeStyle=orthogonalEdgeStyle;rounded=0;orthogonalLoop=1;jettySize=auto;html=1;entryX=1;entryY=0.5;entryDx=0;entryDy=0;" edge="1" parent="I38uoZIhNBEOroFiXY-z-161" source="V88XMunbEEajlaaTa_F--15" target="I38uoZIhNBEOroFiXY-z-199">
          <mxGeometry relative="1" as="geometry" />
        </mxCell>
        <mxCell id="I38uoZIhNBEOroFiXY-z-180" value="KV" style="swimlane;html=1;startSize=20;" parent="I38uoZIhNBEOroFiXY-z-147" vertex="1">
          <mxGeometry x="530" y="20" width="160" height="1160" as="geometry" />
        </mxCell>
        <mxCell id="V88XMunbEEajlaaTa_F--14" style="edgeStyle=orthogonalEdgeStyle;rounded=0;orthogonalLoop=1;jettySize=auto;html=1;entryX=1;entryY=0.5;entryDx=0;entryDy=0;" edge="1" parent="I38uoZIhNBEOroFiXY-z-180" source="I38uoZIhNBEOroFiXY-z-232" target="V88XMunbEEajlaaTa_F--13">
          <mxGeometry relative="1" as="geometry" />
        </mxCell>
        <mxCell id="I38uoZIhNBEOroFiXY-z-232" value="Store player card" style="rounded=1;whiteSpace=wrap;html=1;shadow=0;labelBackgroundColor=none;strokeWidth=1;fontFamily=Verdana;fontSize=8;align=center;" parent="I38uoZIhNBEOroFiXY-z-180" vertex="1">
          <mxGeometry x="60" y="800" width="70" height="45" as="geometry" />
        </mxCell>
        <mxCell id="V88XMunbEEajlaaTa_F--3" style="edgeStyle=orthogonalEdgeStyle;rounded=0;orthogonalLoop=1;jettySize=auto;html=1;entryX=1;entryY=0.5;entryDx=0;entryDy=0;" edge="1" parent="I38uoZIhNBEOroFiXY-z-180" source="D0HEchOp2uFlRMcZAwUu-26" target="V88XMunbEEajlaaTa_F--2">
          <mxGeometry relative="1" as="geometry" />
        </mxCell>
        <mxCell id="D0HEchOp2uFlRMcZAwUu-26" value="Store player data" style="rounded=1;whiteSpace=wrap;html=1;shadow=0;labelBackgroundColor=none;strokeWidth=1;fontFamily=Verdana;fontSize=8;align=center;" parent="I38uoZIhNBEOroFiXY-z-180" vertex="1">
          <mxGeometry x="45" y="161.87" width="70" height="45" as="geometry" />
        </mxCell>
        <mxCell id="V88XMunbEEajlaaTa_F--2" value="Store&lt;br&gt;&lt;div&gt;&lt;span style=&quot;background-color: transparent; color: light-dark(rgb(0, 0, 0), rgb(255, 255, 255));&quot;&gt;Suceess&lt;/span&gt;&lt;/div&gt;" style="rhombus;whiteSpace=wrap;html=1;rounded=0;shadow=0;labelBackgroundColor=none;strokeWidth=1;fontFamily=Verdana;fontSize=8;align=center;" vertex="1" parent="I38uoZIhNBEOroFiXY-z-180">
          <mxGeometry y="260" width="60" height="46.25" as="geometry" />
        </mxCell>
        <mxCell id="V88XMunbEEajlaaTa_F--13" value="Store&lt;br&gt;&lt;div&gt;&lt;span style=&quot;background-color: transparent; color: light-dark(rgb(0, 0, 0), rgb(255, 255, 255));&quot;&gt;Suceess&lt;/span&gt;&lt;/div&gt;" style="rhombus;whiteSpace=wrap;html=1;rounded=0;shadow=0;labelBackgroundColor=none;strokeWidth=1;fontFamily=Verdana;fontSize=8;align=center;" vertex="1" parent="I38uoZIhNBEOroFiXY-z-180">
          <mxGeometry y="910" width="60" height="46.25" as="geometry" />
        </mxCell>
        <mxCell id="I38uoZIhNBEOroFiXY-z-231" style="edgeStyle=orthogonalEdgeStyle;rounded=0;orthogonalLoop=1;jettySize=auto;html=1;entryX=0;entryY=0.5;entryDx=0;entryDy=0;" parent="I38uoZIhNBEOroFiXY-z-147" source="I38uoZIhNBEOroFiXY-z-205" target="I38uoZIhNBEOroFiXY-z-232" edge="1">
          <mxGeometry relative="1" as="geometry">
            <mxPoint x="610" y="543.125" as="targetPoint" />
          </mxGeometry>
        </mxCell>
        <mxCell id="D0HEchOp2uFlRMcZAwUu-1" style="edgeStyle=orthogonalEdgeStyle;rounded=0;orthogonalLoop=1;jettySize=auto;html=1;entryX=0;entryY=0.5;entryDx=0;entryDy=0;" parent="I38uoZIhNBEOroFiXY-z-147" source="I38uoZIhNBEOroFiXY-z-154" target="D0HEchOp2uFlRMcZAwUu-2" edge="1">
          <mxGeometry relative="1" as="geometry">
            <mxPoint x="390" y="108.125" as="targetPoint" />
          </mxGeometry>
        </mxCell>
        <mxCell id="I38uoZIhNBEOroFiXY-z-179" style="edgeStyle=orthogonalEdgeStyle;rounded=0;orthogonalLoop=1;jettySize=auto;html=1;entryX=0;entryY=0.5;entryDx=0;entryDy=0;" parent="I38uoZIhNBEOroFiXY-z-147" source="I38uoZIhNBEOroFiXY-z-175" target="I38uoZIhNBEOroFiXY-z-178" edge="1">
          <mxGeometry relative="1" as="geometry">
            <mxPoint x="420" y="233.125" as="targetPoint" />
          </mxGeometry>
        </mxCell>
        <mxCell id="D0HEchOp2uFlRMcZAwUu-17" style="edgeStyle=orthogonalEdgeStyle;rounded=0;orthogonalLoop=1;jettySize=auto;html=1;entryX=0;entryY=0.5;entryDx=0;entryDy=0;" parent="I38uoZIhNBEOroFiXY-z-147" source="D0HEchOp2uFlRMcZAwUu-14" target="D0HEchOp2uFlRMcZAwUu-16" edge="1">
          <mxGeometry relative="1" as="geometry" />
        </mxCell>
        <mxCell id="D0HEchOp2uFlRMcZAwUu-27" style="edgeStyle=orthogonalEdgeStyle;rounded=0;orthogonalLoop=1;jettySize=auto;html=1;entryX=0;entryY=0.5;entryDx=0;entryDy=0;" parent="I38uoZIhNBEOroFiXY-z-147" source="D0HEchOp2uFlRMcZAwUu-24" target="D0HEchOp2uFlRMcZAwUu-26" edge="1">
          <mxGeometry relative="1" as="geometry" />
        </mxCell>
        <mxCell id="V88XMunbEEajlaaTa_F--5" style="edgeStyle=orthogonalEdgeStyle;rounded=0;orthogonalLoop=1;jettySize=auto;html=1;entryX=1;entryY=0.5;entryDx=0;entryDy=0;" edge="1" parent="I38uoZIhNBEOroFiXY-z-147" source="V88XMunbEEajlaaTa_F--2" target="V88XMunbEEajlaaTa_F--4">
          <mxGeometry relative="1" as="geometry" />
        </mxCell>
        <mxCell id="V88XMunbEEajlaaTa_F--7" style="edgeStyle=orthogonalEdgeStyle;rounded=0;orthogonalLoop=1;jettySize=auto;html=1;entryX=1;entryY=0.5;entryDx=0;entryDy=0;" edge="1" parent="I38uoZIhNBEOroFiXY-z-147" source="D0HEchOp2uFlRMcZAwUu-4" target="D0HEchOp2uFlRMcZAwUu-7">
          <mxGeometry relative="1" as="geometry" />
        </mxCell>
        <mxCell id="I38uoZIhNBEOroFiXY-z-201" style="edgeStyle=orthogonalEdgeStyle;rounded=0;orthogonalLoop=1;jettySize=auto;html=1;entryX=1;entryY=0.5;entryDx=0;entryDy=0;" parent="I38uoZIhNBEOroFiXY-z-147" source="I38uoZIhNBEOroFiXY-z-199" target="I38uoZIhNBEOroFiXY-z-202" edge="1">
          <mxGeometry relative="1" as="geometry">
            <mxPoint x="85" y="845" as="targetPoint" />
          </mxGeometry>
        </mxCell>
        <mxCell id="V88XMunbEEajlaaTa_F--18" style="edgeStyle=orthogonalEdgeStyle;rounded=0;orthogonalLoop=1;jettySize=auto;html=1;entryX=1;entryY=0.5;entryDx=0;entryDy=0;" edge="1" parent="I38uoZIhNBEOroFiXY-z-147" source="V88XMunbEEajlaaTa_F--13" target="V88XMunbEEajlaaTa_F--15">
          <mxGeometry relative="1" as="geometry" />
        </mxCell>
        <mxCell id="I38uoZIhNBEOroFiXY-z-238" value="LuckyDraw-Flow" style="swimlane;html=1;childLayout=stackLayout;startSize=20;rounded=0;shadow=0;labelBackgroundColor=none;strokeWidth=1;fontFamily=Verdana;fontSize=8;align=center;" parent="1" vertex="1">
          <mxGeometry x="1760" y="60" width="600" height="750" as="geometry" />
        </mxCell>
        <mxCell id="I38uoZIhNBEOroFiXY-z-241" value="Player" style="swimlane;html=1;startSize=20;" parent="I38uoZIhNBEOroFiXY-z-238" vertex="1">
          <mxGeometry y="20" width="200" height="730" as="geometry" />
        </mxCell>
        <mxCell id="I38uoZIhNBEOroFiXY-z-247" style="edgeStyle=orthogonalEdgeStyle;rounded=0;orthogonalLoop=1;jettySize=auto;html=1;entryX=1;entryY=0.5;entryDx=0;entryDy=0;" parent="I38uoZIhNBEOroFiXY-z-241" source="I38uoZIhNBEOroFiXY-z-248" target="I38uoZIhNBEOroFiXY-z-250" edge="1">
          <mxGeometry relative="1" as="geometry">
            <mxPoint x="100" y="415" as="targetPoint" />
          </mxGeometry>
        </mxCell>
        <mxCell id="I38uoZIhNBEOroFiXY-z-248" value="DrawComplete" style="rhombus;whiteSpace=wrap;html=1;rounded=0;shadow=0;labelBackgroundColor=none;strokeWidth=1;fontFamily=Verdana;fontSize=8;align=center;" parent="I38uoZIhNBEOroFiXY-z-241" vertex="1">
          <mxGeometry x="130" y="500" width="70" height="50" as="geometry" />
        </mxCell>
        <mxCell id="I38uoZIhNBEOroFiXY-z-249" style="edgeStyle=orthogonalEdgeStyle;rounded=0;orthogonalLoop=1;jettySize=auto;html=1;entryX=0.5;entryY=0;entryDx=0;entryDy=0;" parent="I38uoZIhNBEOroFiXY-z-241" source="I38uoZIhNBEOroFiXY-z-250" target="I38uoZIhNBEOroFiXY-z-253" edge="1">
          <mxGeometry relative="1" as="geometry">
            <mxPoint x="70.67000000000007" y="611.98" as="targetPoint" />
          </mxGeometry>
        </mxCell>
        <mxCell id="I38uoZIhNBEOroFiXY-z-250" value="ShowDraw" style="rounded=1;whiteSpace=wrap;html=1;shadow=0;labelBackgroundColor=none;strokeWidth=1;fontFamily=Verdana;fontSize=8;align=center;" parent="I38uoZIhNBEOroFiXY-z-241" vertex="1">
          <mxGeometry x="30" y="502.5" width="70" height="45" as="geometry" />
        </mxCell>
        <mxCell id="I38uoZIhNBEOroFiXY-z-251" value="&lt;font style=&quot;font-size: 9px;&quot;&gt;Cards&lt;/font&gt;" style="ellipse;whiteSpace=wrap;html=1;aspect=fixed;" parent="I38uoZIhNBEOroFiXY-z-241" vertex="1">
          <mxGeometry x="45" y="681.25" width="40" height="40" as="geometry" />
        </mxCell>
        <mxCell id="I38uoZIhNBEOroFiXY-z-252" style="edgeStyle=orthogonalEdgeStyle;rounded=0;orthogonalLoop=1;jettySize=auto;html=1;entryX=0.5;entryY=0;entryDx=0;entryDy=0;" parent="I38uoZIhNBEOroFiXY-z-241" source="I38uoZIhNBEOroFiXY-z-253" target="I38uoZIhNBEOroFiXY-z-251" edge="1">
          <mxGeometry relative="1" as="geometry" />
        </mxCell>
        <mxCell id="I38uoZIhNBEOroFiXY-z-253" value="UpdateCards" style="rhombus;whiteSpace=wrap;html=1;rounded=0;shadow=0;labelBackgroundColor=none;strokeWidth=1;fontFamily=Verdana;fontSize=8;align=center;" parent="I38uoZIhNBEOroFiXY-z-241" vertex="1">
          <mxGeometry x="35" y="610" width="60" height="46.25" as="geometry" />
        </mxCell>
        <mxCell id="I38uoZIhNBEOroFiXY-z-289" value="&lt;span style=&quot;font-size: 9px;&quot;&gt;PoolID&lt;/span&gt;" style="ellipse;whiteSpace=wrap;html=1;aspect=fixed;" parent="I38uoZIhNBEOroFiXY-z-241" vertex="1">
          <mxGeometry x="150" y="280" width="40" height="40" as="geometry" />
        </mxCell>
        <mxCell id="I38uoZIhNBEOroFiXY-z-242" value="Select Pool" style="rounded=1;whiteSpace=wrap;html=1;shadow=0;labelBackgroundColor=none;strokeWidth=1;fontFamily=Verdana;fontSize=8;align=center;" parent="I38uoZIhNBEOroFiXY-z-241" vertex="1">
          <mxGeometry x="10" y="90" width="70" height="45" as="geometry" />
        </mxCell>
        <mxCell id="I38uoZIhNBEOroFiXY-z-259" value="&lt;font style=&quot;font-size: 9px;&quot;&gt;PlayerID&lt;/font&gt;" style="ellipse;whiteSpace=wrap;html=1;aspect=fixed;" parent="I38uoZIhNBEOroFiXY-z-241" vertex="1">
          <mxGeometry x="75" y="280" width="40" height="40" as="geometry" />
        </mxCell>
        <mxCell id="I38uoZIhNBEOroFiXY-z-256" value="Start Draw" style="rounded=1;whiteSpace=wrap;html=1;shadow=0;labelBackgroundColor=none;strokeWidth=1;fontFamily=Verdana;fontSize=8;align=center;" parent="I38uoZIhNBEOroFiXY-z-241" vertex="1">
          <mxGeometry x="10" y="190" width="70" height="45" as="geometry" />
        </mxCell>
        <mxCell id="I38uoZIhNBEOroFiXY-z-288" style="edgeStyle=orthogonalEdgeStyle;rounded=0;orthogonalLoop=1;jettySize=auto;html=1;exitX=0.5;exitY=1;exitDx=0;exitDy=0;entryX=0.5;entryY=0;entryDx=0;entryDy=0;" parent="I38uoZIhNBEOroFiXY-z-241" source="I38uoZIhNBEOroFiXY-z-258" target="I38uoZIhNBEOroFiXY-z-289" edge="1">
          <mxGeometry relative="1" as="geometry">
            <mxPoint x="145" y="280" as="targetPoint" />
            <mxPoint x="135.0344827586207" y="236.22341954023022" as="sourcePoint" />
          </mxGeometry>
        </mxCell>
        <mxCell id="I38uoZIhNBEOroFiXY-z-260" style="edgeStyle=orthogonalEdgeStyle;rounded=0;orthogonalLoop=1;jettySize=auto;html=1;entryX=0;entryY=0.5;entryDx=0;entryDy=0;" parent="I38uoZIhNBEOroFiXY-z-241" source="I38uoZIhNBEOroFiXY-z-256" target="I38uoZIhNBEOroFiXY-z-258" edge="1">
          <mxGeometry relative="1" as="geometry">
            <mxPoint x="101.40000000000032" y="212.10750000000007" as="targetPoint" />
          </mxGeometry>
        </mxCell>
        <mxCell id="I38uoZIhNBEOroFiXY-z-276" style="edgeStyle=orthogonalEdgeStyle;rounded=0;orthogonalLoop=1;jettySize=auto;html=1;entryX=0.5;entryY=0;entryDx=0;entryDy=0;" parent="I38uoZIhNBEOroFiXY-z-241" source="I38uoZIhNBEOroFiXY-z-242" target="I38uoZIhNBEOroFiXY-z-256" edge="1">
          <mxGeometry relative="1" as="geometry" />
        </mxCell>
        <mxCell id="I38uoZIhNBEOroFiXY-z-257" style="edgeStyle=orthogonalEdgeStyle;rounded=0;orthogonalLoop=1;jettySize=auto;html=1;entryX=0.5;entryY=0;entryDx=0;entryDy=0;exitX=0.5;exitY=1;exitDx=0;exitDy=0;" parent="I38uoZIhNBEOroFiXY-z-241" source="I38uoZIhNBEOroFiXY-z-258" target="I38uoZIhNBEOroFiXY-z-259" edge="1">
          <mxGeometry relative="1" as="geometry">
            <mxPoint x="135.0344827586207" y="236.22341954023022" as="sourcePoint" />
          </mxGeometry>
        </mxCell>
        <mxCell id="I38uoZIhNBEOroFiXY-z-258" value="Start Draw" style="rhombus;whiteSpace=wrap;html=1;rounded=0;shadow=0;labelBackgroundColor=none;strokeWidth=1;fontFamily=Verdana;fontSize=8;align=center;" parent="I38uoZIhNBEOroFiXY-z-241" vertex="1">
          <mxGeometry x="105" y="189.38" width="60" height="46.25" as="geometry" />
        </mxCell>
        <mxCell id="I38uoZIhNBEOroFiXY-z-254" value="Server" style="swimlane;html=1;startSize=20;" parent="I38uoZIhNBEOroFiXY-z-238" vertex="1">
          <mxGeometry x="200" y="20" width="240" height="730" as="geometry" />
        </mxCell>
        <mxCell id="I38uoZIhNBEOroFiXY-z-266" value="StoreNewCard" style="rhombus;whiteSpace=wrap;html=1;rounded=0;shadow=0;labelBackgroundColor=none;strokeWidth=1;fontFamily=Verdana;fontSize=8;align=center;" parent="I38uoZIhNBEOroFiXY-z-254" vertex="1">
          <mxGeometry x="150" y="499" width="60" height="46.25" as="geometry" />
        </mxCell>
        <mxCell id="I38uoZIhNBEOroFiXY-z-271" style="edgeStyle=orthogonalEdgeStyle;rounded=0;orthogonalLoop=1;jettySize=auto;html=1;entryX=0;entryY=0.5;entryDx=0;entryDy=0;" parent="I38uoZIhNBEOroFiXY-z-254" source="I38uoZIhNBEOroFiXY-z-272" target="I38uoZIhNBEOroFiXY-z-266" edge="1">
          <mxGeometry relative="1" as="geometry">
            <Array as="points">
              <mxPoint x="100" y="522" />
            </Array>
          </mxGeometry>
        </mxCell>
        <mxCell id="D0HEchOp2uFlRMcZAwUu-34" style="edgeStyle=orthogonalEdgeStyle;rounded=0;orthogonalLoop=1;jettySize=auto;html=1;entryX=0.5;entryY=0;entryDx=0;entryDy=0;" parent="I38uoZIhNBEOroFiXY-z-254" source="I38uoZIhNBEOroFiXY-z-265" target="I38uoZIhNBEOroFiXY-z-272" edge="1">
          <mxGeometry relative="1" as="geometry" />
        </mxCell>
        <mxCell id="I38uoZIhNBEOroFiXY-z-265" value="Settle And Generate CardID" style="rounded=1;whiteSpace=wrap;html=1;shadow=0;labelBackgroundColor=none;strokeWidth=1;fontFamily=Verdana;fontSize=8;align=center;" parent="I38uoZIhNBEOroFiXY-z-254" vertex="1">
          <mxGeometry x="50" y="340" width="70" height="45" as="geometry" />
        </mxCell>
        <mxCell id="I38uoZIhNBEOroFiXY-z-267" value="GetPoolConfig" style="rhombus;whiteSpace=wrap;html=1;rounded=0;shadow=0;labelBackgroundColor=none;strokeWidth=1;fontFamily=Verdana;fontSize=8;align=center;" parent="I38uoZIhNBEOroFiXY-z-254" vertex="1">
          <mxGeometry x="180" y="338.75" width="60" height="46.25" as="geometry" />
        </mxCell>
        <mxCell id="I38uoZIhNBEOroFiXY-z-268" style="edgeStyle=orthogonalEdgeStyle;rounded=0;orthogonalLoop=1;jettySize=auto;html=1;entryX=0;entryY=0.5;entryDx=0;entryDy=0;" parent="I38uoZIhNBEOroFiXY-z-254" source="I38uoZIhNBEOroFiXY-z-265" target="I38uoZIhNBEOroFiXY-z-267" edge="1">
          <mxGeometry relative="1" as="geometry">
            <mxPoint x="310.0000000000002" y="363.12" as="targetPoint" />
          </mxGeometry>
        </mxCell>
        <mxCell id="I38uoZIhNBEOroFiXY-z-269" value="&lt;font style=&quot;font-size: 9px;&quot;&gt;PoolID&lt;/font&gt;" style="ellipse;whiteSpace=wrap;html=1;aspect=fixed;" parent="I38uoZIhNBEOroFiXY-z-254" vertex="1">
          <mxGeometry x="190" y="410.62" width="40" height="40" as="geometry" />
        </mxCell>
        <mxCell id="I38uoZIhNBEOroFiXY-z-270" style="edgeStyle=orthogonalEdgeStyle;rounded=0;orthogonalLoop=1;jettySize=auto;html=1;entryX=0.5;entryY=0;entryDx=0;entryDy=0;" parent="I38uoZIhNBEOroFiXY-z-254" source="I38uoZIhNBEOroFiXY-z-267" target="I38uoZIhNBEOroFiXY-z-269" edge="1">
          <mxGeometry relative="1" as="geometry" />
        </mxCell>
        <mxCell id="I38uoZIhNBEOroFiXY-z-272" value="GetCardDrop" style="rounded=1;whiteSpace=wrap;html=1;shadow=0;labelBackgroundColor=none;strokeWidth=1;fontFamily=Verdana;fontSize=8;align=center;" parent="I38uoZIhNBEOroFiXY-z-254" vertex="1">
          <mxGeometry x="50" y="415.62" width="70" height="45" as="geometry" />
        </mxCell>
        <mxCell id="D0HEchOp2uFlRMcZAwUu-46" style="edgeStyle=orthogonalEdgeStyle;rounded=0;orthogonalLoop=1;jettySize=auto;html=1;entryX=0.5;entryY=0;entryDx=0;entryDy=0;" parent="I38uoZIhNBEOroFiXY-z-254" source="D0HEchOp2uFlRMcZAwUu-30" target="D0HEchOp2uFlRMcZAwUu-42" edge="1">
          <mxGeometry relative="1" as="geometry" />
        </mxCell>
        <mxCell id="D0HEchOp2uFlRMcZAwUu-30" value="Verify" style="rounded=1;whiteSpace=wrap;html=1;shadow=0;labelBackgroundColor=none;strokeWidth=1;fontFamily=Verdana;fontSize=8;align=center;" parent="I38uoZIhNBEOroFiXY-z-254" vertex="1">
          <mxGeometry x="50" y="190.01" width="70" height="45" as="geometry" />
        </mxCell>
        <mxCell id="D0HEchOp2uFlRMcZAwUu-41" style="edgeStyle=orthogonalEdgeStyle;rounded=0;orthogonalLoop=1;jettySize=auto;html=1;entryX=0;entryY=0.5;entryDx=0;entryDy=0;" parent="I38uoZIhNBEOroFiXY-z-254" source="D0HEchOp2uFlRMcZAwUu-42" target="D0HEchOp2uFlRMcZAwUu-43" edge="1">
          <mxGeometry relative="1" as="geometry" />
        </mxCell>
        <mxCell id="D0HEchOp2uFlRMcZAwUu-47" style="edgeStyle=orthogonalEdgeStyle;rounded=0;orthogonalLoop=1;jettySize=auto;html=1;entryX=0.5;entryY=0;entryDx=0;entryDy=0;" parent="I38uoZIhNBEOroFiXY-z-254" source="D0HEchOp2uFlRMcZAwUu-42" target="I38uoZIhNBEOroFiXY-z-265" edge="1">
          <mxGeometry relative="1" as="geometry" />
        </mxCell>
        <mxCell id="D0HEchOp2uFlRMcZAwUu-42" value="Neccessary Consumption" style="rounded=1;whiteSpace=wrap;html=1;shadow=0;labelBackgroundColor=none;strokeWidth=1;fontFamily=Verdana;fontSize=8;align=center;" parent="I38uoZIhNBEOroFiXY-z-254" vertex="1">
          <mxGeometry x="50" y="261.88" width="70" height="45" as="geometry" />
        </mxCell>
        <mxCell id="D0HEchOp2uFlRMcZAwUu-43" value="StartDraw&lt;div&gt;VerifySuccess&lt;/div&gt;" style="rhombus;whiteSpace=wrap;html=1;rounded=0;shadow=0;labelBackgroundColor=none;strokeWidth=1;fontFamily=Verdana;fontSize=8;align=center;" parent="I38uoZIhNBEOroFiXY-z-254" vertex="1">
          <mxGeometry x="180" y="261.88" width="60" height="46.25" as="geometry" />
        </mxCell>
        <mxCell id="I38uoZIhNBEOroFiXY-z-273" value="KV" style="swimlane;html=1;startSize=20;" parent="I38uoZIhNBEOroFiXY-z-238" vertex="1">
          <mxGeometry x="440" y="20" width="160" height="730" as="geometry" />
        </mxCell>
        <mxCell id="I38uoZIhNBEOroFiXY-z-274" value="Store player card" style="rounded=1;whiteSpace=wrap;html=1;shadow=0;labelBackgroundColor=none;strokeWidth=1;fontFamily=Verdana;fontSize=8;align=center;" parent="I38uoZIhNBEOroFiXY-z-273" vertex="1">
          <mxGeometry x="50" y="499" width="70" height="45" as="geometry" />
        </mxCell>
        <mxCell id="D0HEchOp2uFlRMcZAwUu-44" value="Store player data" style="rounded=1;whiteSpace=wrap;html=1;shadow=0;labelBackgroundColor=none;strokeWidth=1;fontFamily=Verdana;fontSize=8;align=center;" parent="I38uoZIhNBEOroFiXY-z-273" vertex="1">
          <mxGeometry x="45" y="261.88" width="70" height="45" as="geometry" />
        </mxCell>
        <mxCell id="I38uoZIhNBEOroFiXY-z-285" style="edgeStyle=orthogonalEdgeStyle;rounded=0;orthogonalLoop=1;jettySize=auto;html=1;entryX=1;entryY=0.5;entryDx=0;entryDy=0;exitX=0.5;exitY=1;exitDx=0;exitDy=0;" parent="I38uoZIhNBEOroFiXY-z-238" source="I38uoZIhNBEOroFiXY-z-272" target="I38uoZIhNBEOroFiXY-z-248" edge="1">
          <mxGeometry relative="1" as="geometry">
            <Array as="points">
              <mxPoint x="430" y="481" />
              <mxPoint x="430" y="545" />
            </Array>
          </mxGeometry>
        </mxCell>
        <mxCell id="I38uoZIhNBEOroFiXY-z-286" style="edgeStyle=orthogonalEdgeStyle;rounded=0;orthogonalLoop=1;jettySize=auto;html=1;entryX=0;entryY=0.5;entryDx=0;entryDy=0;" parent="I38uoZIhNBEOroFiXY-z-238" source="I38uoZIhNBEOroFiXY-z-266" target="I38uoZIhNBEOroFiXY-z-274" edge="1">
          <mxGeometry relative="1" as="geometry">
            <mxPoint x="610" y="543.125" as="targetPoint" />
          </mxGeometry>
        </mxCell>
        <mxCell id="I38uoZIhNBEOroFiXY-z-287" style="edgeStyle=orthogonalEdgeStyle;rounded=0;orthogonalLoop=1;jettySize=auto;html=1;entryX=1;entryY=0.5;entryDx=0;entryDy=0;" parent="I38uoZIhNBEOroFiXY-z-238" source="I38uoZIhNBEOroFiXY-z-253" edge="1">
          <mxGeometry relative="1" as="geometry">
            <mxPoint x="115" y="652.5" as="targetPoint" />
          </mxGeometry>
        </mxCell>
        <mxCell id="D0HEchOp2uFlRMcZAwUu-31" style="edgeStyle=orthogonalEdgeStyle;rounded=0;orthogonalLoop=1;jettySize=auto;html=1;entryX=0;entryY=0.5;entryDx=0;entryDy=0;" parent="I38uoZIhNBEOroFiXY-z-238" source="I38uoZIhNBEOroFiXY-z-258" target="D0HEchOp2uFlRMcZAwUu-30" edge="1">
          <mxGeometry relative="1" as="geometry" />
        </mxCell>
        <mxCell id="D0HEchOp2uFlRMcZAwUu-45" style="edgeStyle=orthogonalEdgeStyle;rounded=0;orthogonalLoop=1;jettySize=auto;html=1;entryX=0;entryY=0.5;entryDx=0;entryDy=0;" parent="I38uoZIhNBEOroFiXY-z-238" source="D0HEchOp2uFlRMcZAwUu-43" target="D0HEchOp2uFlRMcZAwUu-44" edge="1">
          <mxGeometry relative="1" as="geometry" />
        </mxCell>
      </root>
    </mxGraphModel>
  </diagram>
</mxfile>
